<?xml version="1.0" standalone="no"?>
<!DOCTYPE svg PUBLIC "-//W3C//DTD SVG 20010904//EN"
 "http://www.w3.org/TR/2001/REC-SVG-20010904/DTD/svg10.dtd">
<svg version="1.0" xmlns="http://www.w3.org/2000/svg"
 width="700.000000pt" height="700.000000pt" viewBox="0 0 700.000000 700.000000"
 preserveAspectRatio="xMidYMid meet">
<metadata>
Created by potrace 1.14, written by Peter Selinger 2001-2017
</metadata>
<g transform="translate(0.000000,700.000000) scale(0.100000,-0.100000)"
fill="#000000" stroke="none">
<path d="M2540 6970 c-64 -68 -53 -135 82 -520 125 -354 150 -622 88 -941 -64
-333 -235 -691 -481 -1009 -95 -123 -315 -348 -328 -335 -5 6 -11 37 -14 70
-18 184 -79 344 -173 454 -86 99 -152 80 -189 -54 -52 -183 -117 -349 -288
-740 -181 -414 -248 -613 -301 -900 -2 -11 -7 -49 -11 -85 -4 -36 -9 -74 -12
-85 -12 -56 -4 -442 12 -545 28 -186 50 -290 87 -410 11 -36 21 -72 23 -80 6
-24 80 -209 110 -275 61 -132 219 -394 284 -471 14 -16 37 -45 51 -64 51 -69
227 -252 321 -335 344 -303 812 -528 1248 -600 19 -3 37 -7 40 -9 7 -4 92 -14
221 -25 133 -12 367 -5 490 14 14 2 47 6 73 10 63 8 235 43 267 54 14 5 54 17
90 27 165 45 397 147 565 247 292 174 512 369 738 652 220 276 426 729 483
1065 3 14 9 48 14 75 5 28 12 77 16 110 3 33 8 74 10 90 21 173 21 623 -1 770
-2 17 -6 48 -9 70 -63 498 -195 890 -454 1345 -125 220 -367 570 -451 650 -63
61 -108 71 -138 31 -12 -16 -40 -90 -47 -127 -48 -227 -103 -360 -219 -527
l-41 -58 -43 128 c-126 375 -364 861 -568 1158 -136 197 -177 248 -317 398
-354 377 -940 790 -1140 802 -56 4 -62 2 -88 -25z"/>
</g>
</svg>
