<svg width="50" height="50" fill="none" xmlns="http://www.w3.org/2000/svg"><rect width="50" height="50" rx="2" fill="#FFCF7A"/><mask id="a" style="mask-type:alpha" maskUnits="userSpaceOnUse" x="-1" y="0" width="51" height="50"><rect width="50.001" height="50" rx="2" fill="#ECCF94"/></mask><g mask="url(#a)"><g filter="url(#b)"><ellipse cx="8.495" cy="65.833" rx="22.33" ry="51.667" fill="url(#c)" fill-opacity=".8"/></g><g filter="url(#d)"><ellipse cx="22.33" cy="51.667" rx="22.33" ry="51.667" transform="matrix(-1 0 0 1 63.593 -68.334)" fill="url(#e)" fill-opacity=".8"/></g></g><g clip-path="url(#f)"><path d="M31.51 28.528c-1.088-.93-2.192-1.493-3.266-.565l-.641.562c-.47.407-1.342 2.31-4.715-1.57-3.372-3.875-1.365-4.478-.896-4.882l.645-.562c1.069-.931.666-2.103-.105-3.309l-.465-.73c-.774-1.204-1.617-1.994-2.688-1.065l-.579.506c-.474.345-1.797 1.466-2.118 3.596-.386 2.555.833 5.482 3.625 8.693 2.788 3.212 5.519 4.826 8.105 4.797 2.15-.023 3.448-1.176 3.854-1.596l.58-.506c1.069-.929.405-1.874-.683-2.806l-.654-.563Z" fill="#000"/></g><defs><linearGradient id="c" x1="22.815" y1="55.833" x2=".12" y2="55.798" gradientUnits="userSpaceOnUse"><stop stop-color="#F98B4D"/><stop offset="1" stop-color="#FF6752"/></linearGradient><linearGradient id="e" x1="36.651" y1="41.667" x2="13.956" y2="41.631" gradientUnits="userSpaceOnUse"><stop stop-color="#FFD9C4"/><stop offset="1" stop-color="#fff"/></linearGradient><filter id="b" x="-63.835" y="-35.834" width="144.661" height="203.333" filterUnits="userSpaceOnUse" color-interpolation-filters="sRGB"><feFlood flood-opacity="0" result="BackgroundImageFix"/><feBlend in="SourceGraphic" in2="BackgroundImageFix" result="shape"/><feGaussianBlur stdDeviation="25" result="effect1_foregroundBlur_71_308"/></filter><filter id="d" x="-31.068" y="-118.333" width="144.661" height="203.333" filterUnits="userSpaceOnUse" color-interpolation-filters="sRGB"><feFlood flood-opacity="0" result="BackgroundImageFix"/><feBlend in="SourceGraphic" in2="BackgroundImageFix" result="shape"/><feGaussianBlur stdDeviation="25" result="effect1_foregroundBlur_71_308"/></filter><clipPath id="f"><path fill="#fff" transform="translate(16 16)" d="M0 0h18v18H0z"/></clipPath></defs></svg>