<svg version="1.0" xmlns="http://www.w3.org/2000/svg" width="933.333" height="933.333" viewBox="0 0 700 700"><path d="M254 3c-6.4 6.8-5.3 13.5 8.2 52 12.5 35.4 15 62.2 8.8 94.1-6.4 33.3-23.5 69.1-48.1 100.9-9.5 12.3-31.5 34.8-32.8 33.5-.5-.6-1.1-3.7-1.4-7-1.8-18.4-7.9-34.4-17.3-45.4-8.6-9.9-15.2-8-18.9 5.4-5.2 18.3-11.7 34.9-28.8 74-18.1 41.4-24.8 61.3-30.1 90-.2 1.1-.7 4.9-1.1 8.5-.4 3.6-.9 7.4-1.2 8.5-1.2 5.6-.4 44.2 1.2 54.5 2.8 18.6 5 29 8.7 41 1.1 3.6 2.1 7.2 2.3 8 .6 2.4 8 20.9 11 27.5 6.1 13.2 21.9 39.4 28.4 47.1 1.4 1.6 3.7 4.5 5.1 6.4 5.1 6.9 22.7 25.2 32.1 33.5 34.4 30.3 81.2 52.8 124.8 60 1.9.3 3.7.7 4 .9.7.4 9.2 1.4 22.1 2.5 13.3 1.2 36.7.5 49-1.4 1.4-.2 4.7-.6 7.3-1 6.3-.8 23.5-4.3 26.7-5.4 1.4-.5 5.4-1.7 9-2.7 16.5-4.5 39.7-14.7 56.5-24.7 29.2-17.4 51.2-36.9 73.8-65.2 22-27.6 42.6-72.9 48.3-106.5.3-1.4.9-4.8 1.4-7.5.5-2.8 1.2-7.7 1.6-11 .3-3.3.8-7.4 1-9 2.1-17.3 2.1-62.3-.1-77-.2-1.7-.6-4.8-.9-7-6.3-49.8-19.5-89-45.4-134.5-12.5-22-36.7-57-45.1-65-6.3-6.1-10.8-7.1-13.8-3.1-1.2 1.6-4 9-4.7 12.7-4.8 22.7-10.3 36-21.9 52.7l-4.1 5.8-4.3-12.8c-12.6-37.5-36.4-86.1-56.8-115.8-13.6-19.7-17.7-24.8-31.7-39.8-35.4-37.7-94-79-114-80.2-5.6-.4-6.2-.2-8.8 2.5z"/></svg>